<svg xmlns="http://www.w3.org/2000/svg" viewBox="0.616 0.197 337.036 337.126">
  <path d="M 17.818 0.911 C 9.234 3.603 2.294 11.384 0.624 20.19 C -0.224 24.66 -0.232 312.936 0.616 317.405 C 2.062 325.034 7.734 332.239 14.959 335.625 L 18.583 337.323 L 169.134 337.323 L 319.685 337.323 L 323.309 335.625 C 330.533 332.239 336.205 325.034 337.652 317.405 C 338.514 312.863 338.49 24.661 337.628 20.086 C 336.209 12.554 330.543 5.404 323.309 2.013 L 319.685 0.315 L 170.079 0.197 C 47.599 0.1 19.991 0.23 17.818 0.911 M 87.655 49.909 C 110.871 61.383 108.775 94.403 84.302 102.726 C 64.645 109.411 44.127 92.157 47.299 71.611 C 50.214 52.737 70.885 41.621 87.655 49.909 M 237.881 123.506 C 265.924 126.633 280.749 141.554 285.7 171.635 C 287.387 181.883 287.85 201.382 287.438 244.882 L 287.037 287.244 L 262.603 287.244 L 238.168 287.244 L 237.963 238.898 C 237.737 185.826 237.766 186.235 233.695 178.256 C 224.387 160.012 192.55 162.898 185.216 182.652 C 181.844 191.733 181.853 191.582 181.586 241.102 L 181.337 287.244 L 156.81 287.244 L 132.283 287.244 L 132.283 207.244 L 132.283 127.244 L 155.906 127.244 L 179.528 127.244 L 179.528 137.953 C 179.528 149.338 179.942 150.698 182.232 146.823 C 192.431 129.556 213.389 120.775 237.881 123.506 M 100.157 207.244 L 100.157 287.244 L 75.591 287.244 L 51.024 287.244 L 51.024 207.244 L 51.024 127.244 L 75.591 127.244 L 100.157 127.244 L 100.157 207.244" fill="#ff83d6"/>
</svg>